<svg width="31" height="31" viewBox="0 0 31 31" fill="none" xmlns="http://www.w3.org/2000/svg">
<path fill-rule="evenodd" clip-rule="evenodd" d="M8.12832 15.8783C8.63275 15.3739 9.45059 15.3739 9.95501 15.8783L15.5 21.4233L21.045 15.8783C21.5494 15.3739 22.3673 15.3739 22.8717 15.8783C23.3761 16.3827 23.3761 17.2006 22.8717 17.705L16.4133 24.1633C15.9089 24.6678 15.0911 24.6678 14.5867 24.1633L8.12832 17.705C7.62389 17.2006 7.62389 16.3827 8.12832 15.8783Z" fill="#E22828"/>
<path fill-rule="evenodd" clip-rule="evenodd" d="M8.12832 6.83666C8.63275 6.33223 9.45059 6.33223 9.95501 6.83666L15.5 12.3816L21.045 6.83666C21.5494 6.33223 22.3673 6.33223 22.8717 6.83666C23.3761 7.34108 23.3761 8.15892 22.8717 8.66335L16.4133 15.1217C15.9089 15.6261 15.0911 15.6261 14.5867 15.1217L8.12832 8.66335C7.62389 8.15892 7.62389 7.34108 8.12832 6.83666Z" fill="#E22828"/>
</svg>
