<svg width="373" height="274" viewBox="0 0 373 274" fill="none" xmlns="http://www.w3.org/2000/svg">
<rect y="116" width="158" height="158" fill="#E22828"/>
<circle cx="53.5" cy="73.5" r="73.5" fill="#E22828"/>
<circle cx="164.5" cy="99.5" r="73.5" fill="#E22828"/>
<circle cx="228.5" cy="162.5" r="73.5" fill="#E22828"/>
<circle cx="299.5" cy="236.5" r="73.5" fill="#E22828"/>
<circle cx="200.5" cy="236.5" r="73.5" fill="#E22828"/>
<path fill-rule="evenodd" clip-rule="evenodd" d="M59.0837 69.2746C57.7171 68.7907 56.0031 70.1099 55.2555 72.2213L39.0102 118.097C38.2625 120.208 38.7643 122.312 40.1309 122.796L84.6707 138.568C86.0373 139.052 87.7512 137.733 88.4989 135.621L104.744 89.7462C105.492 87.6348 104.99 85.5309 103.623 85.047L59.0837 69.2746ZM50.3066 70.4688C52.5496 64.1348 57.6914 60.1769 61.7912 61.6287L106.331 77.4011C110.431 78.8529 111.936 85.1646 109.693 91.4986L93.4478 137.374C91.2047 143.708 86.0629 147.666 81.9631 146.214L37.4233 130.442C33.3235 128.99 31.8183 122.678 34.0613 116.344L50.3066 70.4688Z" fill="#202020"/>
<path fill-rule="evenodd" clip-rule="evenodd" d="M44.8915 85.7605C45.6392 83.6492 47.3531 82.3299 48.7197 82.8139L103.157 102.091C104.524 102.575 105.026 104.679 104.278 106.79C103.53 108.902 101.816 110.221 100.45 109.737L46.0122 90.4597C44.6456 89.9758 44.1438 87.8719 44.8915 85.7605Z" fill="#202020"/>
<path fill-rule="evenodd" clip-rule="evenodd" d="M109.717 180.707C97.2217 183.823 90.9911 201.988 95.8011 221.279C100.611 240.571 114.64 253.684 127.136 250.569C139.632 247.453 145.862 229.289 141.052 209.997C136.242 190.705 122.213 177.592 109.717 180.707ZM90.7732 222.533C84.8943 198.954 92.5095 176.753 107.782 172.945C123.055 169.137 140.201 185.165 146.08 208.743C151.959 232.322 144.344 254.523 129.071 258.331C113.799 262.139 96.652 246.112 90.7732 222.533Z" fill="#202020"/>
<path fill-rule="evenodd" clip-rule="evenodd" d="M90.7732 222.533C90.2387 220.389 90.931 218.371 92.3194 218.025L142.598 205.489C143.987 205.143 145.546 206.6 146.08 208.743C146.614 210.887 145.922 212.905 144.534 213.251L94.2548 225.787C92.8664 226.133 91.3076 224.676 90.7732 222.533Z" fill="#202020"/>
<path fill-rule="evenodd" clip-rule="evenodd" d="M110.885 217.518C114.033 229.409 119.556 240.236 126.603 248.431C128.977 237.887 128.771 225.735 125.968 213.758C122.82 201.867 117.297 191.04 110.25 182.845C107.876 193.389 108.082 205.541 110.885 217.518ZM108.75 176.826L106.241 174.672C102.365 187.665 102.221 203.308 105.837 218.691C105.85 218.745 105.863 218.799 105.878 218.853C109.907 234.133 117.378 247.878 126.9 257.53C127.577 258.217 128.365 258.507 129.071 258.331C129.777 258.155 130.337 257.529 130.612 256.605C134.488 243.612 134.632 227.969 131.016 212.585C131.003 212.531 130.99 212.477 130.976 212.423C126.946 197.143 119.475 183.398 109.953 173.746L108.75 176.826Z" fill="#202020"/>
<g clip-path="url(#clip0)">
<path fill-rule="evenodd" clip-rule="evenodd" d="M210.565 143.095C209.771 142.821 208.901 142.874 208.146 143.243C207.391 143.611 206.813 144.264 206.54 145.058L192.106 186.976C191.833 187.77 191.886 188.64 192.254 189.395C192.622 190.15 193.275 190.727 194.069 191.001L235.987 205.434C236.782 205.708 237.652 205.655 238.407 205.286C239.161 204.918 239.739 204.265 240.013 203.471L245.518 187.482C246.087 185.829 247.889 184.95 249.543 185.519C251.197 186.089 252.076 187.891 251.506 189.544L246.001 205.533C245.181 207.915 243.447 209.874 241.183 210.979C238.918 212.083 236.308 212.243 233.926 211.423L192.008 196.989C189.625 196.169 187.666 194.436 186.562 192.171C185.457 189.907 185.298 187.296 186.118 184.914L200.552 142.996C201.372 140.614 203.105 138.655 205.369 137.55C207.634 136.446 210.245 136.286 212.627 137.106L228.616 142.612C230.269 143.181 231.148 144.983 230.579 146.637C230.009 148.29 228.207 149.169 226.554 148.6L210.565 143.095Z" fill="#202020"/>
<path fill-rule="evenodd" clip-rule="evenodd" d="M254.188 145.699C255.76 144.933 257.655 145.586 258.422 147.157L266.275 163.258C267.041 164.83 266.389 166.726 264.817 167.492L224.566 187.124C223.811 187.492 222.941 187.545 222.146 187.272L210.17 183.148C208.516 182.579 207.637 180.777 208.207 179.123L212.331 167.146C212.604 166.352 213.182 165.699 213.937 165.331L254.188 145.699ZM217.892 170.449L215.226 178.191L222.968 180.857L259.194 163.188L254.118 152.78L217.892 170.449Z" fill="#202020"/>
</g>
<defs>
<clipPath id="clip0">
<rect width="76" height="76" fill="white" transform="translate(203.743 124) rotate(19)"/>
</clipPath>
</defs>
</svg>
