<svg width="63" height="73" viewBox="0 0 63 73" fill="none" xmlns="http://www.w3.org/2000/svg">
<path fill-rule="evenodd" clip-rule="evenodd" d="M7.875 8.11111C6.42525 8.11111 5.25 9.92684 5.25 12.1667V60.8333C5.25 63.0732 6.42525 64.8889 7.875 64.8889H55.125C56.5747 64.8889 57.75 63.0732 57.75 60.8333V12.1667C57.75 9.92684 56.5747 8.11111 55.125 8.11111H7.875ZM0 12.1667C0 5.4472 3.52576 0 7.875 0H55.125C59.4742 0 63 5.4472 63 12.1667V60.8333C63 67.5528 59.4742 73 55.125 73H7.875C3.52576 73 0 67.5528 0 60.8333V12.1667Z" fill="#E22828"/>
<path fill-rule="evenodd" clip-rule="evenodd" d="M0 28.3889C0 26.1491 1.17525 24.3333 2.625 24.3333H60.375C61.8247 24.3333 63 26.1491 63 28.3889C63 30.6287 61.8247 32.4444 60.375 32.4444H2.625C1.17525 32.4444 0 30.6287 0 28.3889Z" fill="#E22828"/>
</svg>
