<svg width="57" height="88" viewBox="0 0 57 88" fill="none" xmlns="http://www.w3.org/2000/svg">
<path fill-rule="evenodd" clip-rule="evenodd" d="M28.5 8C15.6217 8 5.18182 24.1177 5.18182 44C5.18182 63.8823 15.6217 80 28.5 80C41.3783 80 51.8182 63.8823 51.8182 44C51.8182 24.1177 41.3783 8 28.5 8ZM0 44C0 19.6995 12.7599 0 28.5 0C44.2401 0 57 19.6995 57 44C57 68.3005 44.2401 88 28.5 88C12.7599 88 0 68.3005 0 44Z" fill="#E22828"/>
<path fill-rule="evenodd" clip-rule="evenodd" d="M0 44C0 41.7909 1.15999 40 2.59091 40H54.4091C55.84 40 57 41.7909 57 44C57 46.2091 55.84 48 54.4091 48H2.59091C1.15999 48 0 46.2091 0 44Z" fill="#E22828"/>
<path fill-rule="evenodd" clip-rule="evenodd" d="M20.7279 44C20.9054 56.2994 23.6453 68.1406 28.5 77.7968C33.3547 68.1406 36.0946 56.2994 36.2721 44C36.0946 31.7006 33.3547 19.8594 28.5 10.2032C23.6453 19.8594 20.9054 31.7006 20.7279 44ZM28.5 4L26.587 1.30231C19.6829 12.9716 15.7592 28.1154 15.546 43.9167C15.5453 43.9722 15.5453 44.0278 15.546 44.0833C15.7592 59.8846 19.6829 75.0284 26.587 86.6977C27.0779 87.5274 27.7722 88 28.5 88C29.2278 88 29.9221 87.5274 30.413 86.6977C37.3171 75.0284 41.2408 59.8846 41.454 44.0833C41.4547 44.0278 41.4547 43.9722 41.454 43.9167C41.2408 28.1154 37.3171 12.9716 30.413 1.30231L28.5 4Z" fill="#E22828"/>
</svg>
