<svg width="76" height="76" viewBox="0 0 76 76" fill="none" xmlns="http://www.w3.org/2000/svg">
<path fill-rule="evenodd" clip-rule="evenodd" d="M12.6667 15.8333C11.8268 15.8333 11.0214 16.167 10.4275 16.7608C9.83363 17.3547 9.5 18.1601 9.5 19V63.3333C9.5 64.1732 9.83363 64.9786 10.4275 65.5725C11.0214 66.1664 11.8268 66.5 12.6667 66.5H57C57.8398 66.5 58.6453 66.1664 59.2392 65.5725C59.833 64.9786 60.1667 64.1732 60.1667 63.3333V46.4233C60.1667 44.6744 61.5844 43.2567 63.3333 43.2567C65.0822 43.2567 66.5 44.6744 66.5 46.4233V63.3333C66.5 65.8529 65.4991 68.2693 63.7175 70.0508C61.9359 71.8324 59.5196 72.8333 57 72.8333H12.6667C10.1471 72.8333 7.73075 71.8324 5.94916 70.0508C4.16756 68.2692 3.16667 65.8529 3.16667 63.3333V19C3.16667 16.4804 4.16756 14.0641 5.94916 12.2825C7.73075 10.5009 10.1471 9.5 12.6667 9.5H29.5767C31.3256 9.5 32.7433 10.9178 32.7433 12.6667C32.7433 14.4156 31.3256 15.8333 29.5767 15.8333H12.6667Z" fill="#E22828"/>
<path fill-rule="evenodd" clip-rule="evenodd" d="M54.7608 4.09412C55.9975 2.85746 58.0025 2.85746 59.2392 4.09412L71.9058 16.7608C73.1425 17.9974 73.1425 20.0025 71.9058 21.2391L40.2392 52.9058C39.6453 53.4997 38.8399 53.8333 38 53.8333H25.3333C23.5844 53.8333 22.1667 52.4155 22.1667 50.6666V38C22.1667 37.1601 22.5003 36.3547 23.0942 35.7608L54.7608 4.09412ZM28.5 39.3116V47.5H36.6883L65.1883 19L57 10.8116L28.5 39.3116Z" fill="#E22828"/>
</svg>
